<?xml version="1.0" encoding="utf-8"?>
<!-- Generator: Adobe Illustrator 23.0.6, SVG Export Plug-In . SVG Version: 6.00 Build 0)  -->
<svg version="1.1" id="Capa_1" xmlns="http://www.w3.org/2000/svg" xmlns:xlink="http://www.w3.org/1999/xlink" x="0px" y="0px"
	 viewBox="0 0 375.84 453.58" style="enable-background:new 0 0 375.84 453.58;" xml:space="preserve">
<style type="text/css">
	.st0{fill:#FFFFFF;}
</style>
<g>
	<path class="st0" d="M375.84,197.04c-0.15,1.66-0.32,3.32-0.44,4.99c-1.72,23.21-7.35,45.43-17.55,66.35
		c-23.58,48.33-60.94,81.19-111.91,98.42c-15.26,5.16-31.02,8.03-47.11,8.82c-50.54,2.46-95.33-12.45-133.71-45.42
		c-32.51-27.92-52.9-63.23-61.55-105.25c-1.79-8.71-2.89-17.51-3.35-26.38c-0.03-0.51-0.14-1.02-0.21-1.52c0-6.08,0-12.16,0-18.24
		c0.07-0.47,0.19-0.93,0.21-1.4c0.63-11.89,2.43-23.6,5.3-35.15C20.09,83.47,63.17,34.59,119.64,12.72
		c17.6-6.82,35.8-10.95,54.63-12.28c1.75-0.12,3.5-0.29,5.24-0.44c5.6,0,11.2,0,16.8,0c0.55,0.07,1.1,0.18,1.65,0.21
		c10.85,0.54,21.57,2,32.13,4.49c40.24,9.48,73.96,29.85,100.8,61.26c26.55,31.08,41.29,67.19,44.5,107.97
		c0.13,1.63,0.29,3.25,0.44,4.88C375.84,184.88,375.84,190.96,375.84,197.04z M16.12,187.91c0.04,94.89,76.83,171.74,171.69,171.82
		c95,0.08,171.94-76.94,171.92-172.08C359.7,93,282.64,16.09,187.88,16.12C93.05,16.16,16.09,93.14,16.12,187.91z"/>
	<path class="st0" d="M37.19,453.58c0-2.33,0-4.59,0-6.92c100.47,0,200.89,0,301.42,0c0,2.27,0,4.56,0,6.92
		C238.18,453.58,137.76,453.58,37.19,453.58z"/>
	<path class="st0" d="M224.65,409.8c0,2.19,0,4.21,0,6.35c-1.78,0-3.49,0.03-5.2-0.03c-0.28-0.01-0.64-0.3-0.81-0.56
		c-2.58-3.85-8.14-3.58-10.81,0.42c-2.3,3.45-2.25,8.39,0.19,11.48c1.65,2.08,3.82,3.03,6.45,2.57c2.21-0.38,3.53-1.88,4.38-4.13
		c-1.81,0-3.49,0-5.22,0c0-1.81,0-3.42,0-5.11c4.26,0,8.48,0,12.8,0c0,4.97,0,9.94,0,14.98c-1.76,0-3.5,0-5.39,0
		c0-1.39,0-2.8,0-4.46c-0.31,0.28-0.43,0.35-0.5,0.46c-2.4,4.01-6.4,5.08-10.72,3.87c-5.77-1.61-8.72-5.76-9.75-11.43
		c-1.18-6.48,2.07-13.26,7.74-15.89c4.22-1.96,8.42-2.06,12.29,1.04c0.34,0.27,0.86,0.38,1.31,0.41
		C222.45,409.84,223.49,409.8,224.65,409.8z"/>
	<path class="st0" d="M160.35,430.71c0-1.71,0-3.29,0-4.94c2.02,0,3.92,0,5.92,0c0,3.3,0,6.6,0,9.99c-7.3,0-14.63,0-22.04,0
		c0-1.62,0-3.23,0-5.01c0.91,0,1.8,0,2.77,0c0-5.89,0-11.62,0-17.48c-0.9-0.04-1.8-0.09-2.77-0.13c0-1.85,0-3.63,0-5.51
		c7.3,0,14.63,0,22.04,0c0,3.11,0,6.24,0,9.46c-1.93,0-3.86,0-5.9,0c0-1.26,0-2.48,0-3.8c-2.4,0-4.69,0-7.08,0c0,1.78,0,3.55,0,5.44
		c1.79,0,3.53,0,5.36,0c0,1.82,0,3.52,0,5.39c-1.74,0-3.51,0-5.45,0c0,2.11-0.02,4.05,0.03,6c0,0.2,0.35,0.56,0.55,0.57
		C155.93,430.73,158.08,430.71,160.35,430.71z"/>
	<path class="st0" d="M288.92,412.74c-0.87-0.05-1.61-0.09-2.46-0.13c0-1.65,0-3.27,0-4.99c3.65,0,7.33,0,11.07,0
		c0,1.64,0,3.26,0,4.98c-0.81,0.05-1.59,0.09-2.51,0.14c0,0.49,0,0.92,0,1.35c0,3.2-0.01,6.4,0.01,9.6c0,0.72,0.04,1.44,0.12,2.15
		c0.42,3.63,3.34,5.41,6.78,4.16c1.73-0.63,2.53-2.08,2.57-3.73c0.12-4.47,0.04-8.94,0.04-13.56c-0.9,0-1.8,0-2.77,0
		c0-1.77,0-3.39,0-5.1c3.65,0,7.31,0,11.06,0c0,1.62,0,3.27,0,4.99c-0.69,0.05-1.35,0.1-2.12,0.16c0,3.42,0.04,6.78-0.02,10.13
		c-0.03,1.51-0.11,3.05-0.41,4.52c-1.42,6.77-7.85,10.44-14.23,8.19c-4.05-1.43-6.91-5.44-7.07-10.22
		c-0.13-3.76-0.05-7.52-0.07-11.28C288.92,413.67,288.92,413.25,288.92,412.74z"/>
	<path class="st0" d="M128.32,428.23c1.55-5.13,3.09-10.25,4.69-15.56c-1.13,0-2.11,0-3.14,0c0-1.76,0-3.38,0-5.08
		c3.93,0,7.83,0,11.83,0c0,1.64,0,3.3,0,4.92c-0.13,0.06-0.21,0.13-0.27,0.12c-2.01-0.43-2.46,0.85-2.95,2.43
		c-2.03,6.56-4.18,13.08-6.25,19.63c-0.27,0.85-0.61,1.22-1.56,1.17c-1.71-0.09-3.44-0.09-5.16,0c-0.97,0.05-1.37-0.26-1.66-1.2
		c-2.07-6.8-4.24-13.57-6.28-20.38c-0.37-1.23-0.86-1.87-2.19-1.63c-0.3,0.05-0.62-0.04-1-0.07c0-1.68,0-3.3,0-4.99
		c3.94,0,7.84,0,11.84,0c0,1.64,0,3.28,0,5.04c-0.9,0-1.77,0-2.87,0c1.61,5.31,3.16,10.46,4.72,15.61
		C128.15,428.24,128.24,428.23,128.32,428.23z"/>
	<path class="st0" d="M43.51,435.75c0-1.69,0-3.28,0-4.99c0.91,0,1.77,0,2.73,0c0-6.13,0-12.13,0-18.19c-1.06,0-2.08,0-3.24,0
		c0,1.15,0,2.29,0,3.5c-2.06,0-3.99,0-5.98,0c0-2.83,0-5.61,0-8.47c8.4,0,16.78,0,25.26,0c0,2.78,0,5.59,0,8.47
		c-1.95,0-3.89,0-5.97,0c0-1.19,0-2.33,0-3.52c-1.3,0-2.45,0-3.71,0c0,6.02,0,12.02,0,18.13c0.91,0,1.77,0,2.73,0
		c0,1.72,0,3.34,0,5.06C51.44,435.75,47.51,435.75,43.51,435.75z"/>
	<path class="st0" d="M169.54,435.77c0-1.67,0-3.29,0-5.04c0.93,0,1.79,0,2.74,0c0-6.06,0-11.99,0-18.05c-0.89,0-1.76,0-2.71,0
		c0-1.74,0-3.36,0-5.07c3.9,0,7.83,0,11.82,0c0,1.63,0,3.25,0,5.02c-0.91,0-1.81,0-2.78,0c0,6.08,0,12.01,0,18.07
		c2,0,3.95,0.05,5.9-0.02c0.91-0.03,1.29-0.73,1.31-1.58c0.03-1.15,0.01-2.31,0.01-3.57c2.02,0,3.94,0,5.93,0c0,3.41,0,6.79,0,10.24
		C184.35,435.77,176.97,435.77,169.54,435.77z"/>
	<path class="st0" d="M261.36,198.3c-0.41-0.12-0.64-0.17-0.85-0.26c-5.91-2.31-12.08-3.31-18.39-3.5
		c-7.91-0.23-15.61,0.8-22.63,4.65c-11.6,6.36-17.93,16.01-17.5,29.51c0.3,9.53,4.36,17.24,12.01,22.96
		c4.63,3.46,9.87,5.82,15.43,7.22c6.61,1.67,13.35,2.84,19.99,4.4c3.68,0.87,7.4,1.78,10.87,3.23c4.26,1.78,4.97,7.4,1.59,10.59
		c-0.86,0.81-1.9,1.47-2.95,2.02c-3.04,1.57-6.36,2.07-9.72,2.3c-6.26,0.43-12.22-0.44-17.43-4.28c-3.64-2.69-5.88-6.14-5.63-10.89
		c0.07-1.38,0.01-2.77,0.01-4.18c-8.15,0-16.12,0-24.16,0c0,13.66,0,27.23,0,40.86c8.07,0,16.05,0,24.18,0c0-1,0-1.93,0-2.96
		c0.31,0.08,0.46,0.1,0.59,0.16c5.19,2.46,10.67,3.8,16.37,4.27c9.36,0.78,18.57,0.1,27.27-3.75c12.53-5.54,20.12-14.74,20.46-28.9
		c0.27-11.5-4.32-20.69-13.66-27.45c-4.43-3.21-9.57-4.8-14.8-5.93c-7.53-1.63-15.15-2.86-22.7-4.4c-3.27-0.67-6.49-1.63-9.71-2.57
		c-1.62-0.47-2.56-1.69-2.85-3.39c-0.5-3.04,0.38-5.52,2.87-7.39c2.72-2.04,5.87-2.86,9.18-3.09c8.43-0.58,15.74,1.65,21.18,8.55
		c0.67,0.85,1.06,1.69,1.01,2.82c-0.09,2.3-0.03,4.61-0.03,6.93c8.14,0,16.12,0,24.16,0c0-13.29,0-26.51,0-39.75
		c-8.07,0-16.08,0-24.15,0C261.36,196.86,261.36,197.49,261.36,198.3z"/>
	<path class="st0" d="M249.24,156.74c-0.03-0.43-0.06-0.7-0.06-0.98c0.02-7.52,0-15.04,0.08-22.55c0.07-5.96,0.44-11.91,1.75-17.75
		c1.12-5,3.41-9.28,7.8-12.19c2.83-1.87,6.05-2.66,9.33-3.23c6.13-1.07,12.34-1.03,18.53-1.01c1.11,0,2.22,0,3.36,0
		c0-8.92,0-17.69,0-26.48c-0.24-0.03-0.39-0.07-0.55-0.07c-6.19,0.17-12.39,0.19-18.57,0.54c-9.13,0.52-16.91,4.12-23.13,10.91
		c-0.82,0.89-1.61,1.81-2.41,2.71c-0.09-0.03-0.18-0.06-0.27-0.09c0-4.16,0-8.33,0-12.53c-14.23,0-28.29,0-42.38,0
		c0,8.06,0,16.05,0,24.17c6.71,0,13.37,0,20.04,0c0,19.58,0,39.03,0,58.57c-6.73,0-13.35,0-20,0c0,8.1,0,16.11,0,24.08
		c22.81,0,45.5,0,68.17,0c0-8.08,0-16.05,0-24.11C263.68,156.74,256.53,156.74,249.24,156.74z"/>
	<path class="st0" d="M151.74,280.27c0-27.71,0-55.2,0-82.69c-14,0-27.85,0-41.74,0c0,8.07,0,16.05,0,24.18c5.16,0,10.25,0,15.34,0
		c0,19.56,0,38.98,0,58.51c-5.16,0-10.22,0-15.32,0c0,8.12,0,16.13,0,24.16c19.11,0,38.12,0,57.18,0c0-8.07,0-16.05,0-24.16
		C162.08,280.27,157.02,280.27,151.74,280.27z"/>
	<path class="st0" d="M87.2,428.18c-0.52-2.1-0.91-4.26-3.09-5.6c2.07-1.06,3.59-2.39,4.19-4.55c1.51-5.42-2.2-10.34-8.04-10.47
		c-5-0.11-10-0.03-15-0.03c-0.15,0-0.3,0.06-0.46,0.1c0,1.67,0,3.29,0,4.98c0.96,0.05,1.86,0.09,2.76,0.13c0,6.02,0,11.93,0,18
		c-0.95,0-1.85,0-2.75,0c0,1.78,0,3.4,0,5.03c3.86,0,7.63,0,11.43,0c0-1.7,0-3.32,0-5.05c-0.81,0-1.56,0-2.4,0c0-2.16,0-4.13,0-6.14
		c1.06,0,2.02-0.06,2.97,0.01c2.07,0.16,3.21,1.13,3.76,3.12c0.15,0.54,0.23,1.09,0.32,1.65c0.36,2.15,0.72,4.3,1.08,6.48
		c1.46,0,2.78,0,4.1,0c1.31,0,2.61,0,3.88,0c0-1.93,0-3.7,0-5.46C87.73,430.25,87.71,430.25,87.2,428.18z M79.43,419.23
		c-1.83,0.27-3.7,0.26-5.62,0.38c0-2.41,0-4.58,0-7.06c1.97,0.15,3.92,0.12,5.8,0.48c1.66,0.31,2.4,1.61,2.33,3.29
		C81.87,417.83,81.02,418.99,79.43,419.23z"/>
	<path class="st0" d="M253.21,427.98c-0.49-2.03-0.93-4.09-3-5.38c0.31-0.2,0.44-0.3,0.58-0.37c2.88-1.52,4.03-3.98,3.85-7.14
		c-0.18-3.02-1.66-5.28-4.39-6.5c-1.38-0.62-2.98-0.97-4.5-1.02c-4.03-0.14-8.08-0.05-12.12-0.05c-0.91,0-1.82,0-2.75,0
		c0,1.78,0,3.42,0,5.2c0.97,0,1.83,0,2.69,0c0,6.06,0,11.99,0,18.04c-0.97,0-1.83,0-2.71,0c0,1.75,0,3.36,0,5c3.86,0,7.63,0,11.44,0
		c0-1.69,0-3.31,0-4.99c-0.85-0.04-1.63-0.08-2.42-0.12c0-2.08,0-4.05,0-6.08c1.04,0,2-0.06,2.95,0.01
		c2.11,0.16,3.26,1.15,3.81,3.21c0.14,0.54,0.22,1.1,0.32,1.65c0.36,2.11,0.71,4.23,1.05,6.32c2.76,0,5.38,0,8,0
		c0-1.84,0-3.61,0-5.38C253.77,430.22,253.75,430.22,253.21,427.98z M247.98,416.51c-0.11,1.41-0.99,2.51-2.56,2.74
		c-1.8,0.26-3.63,0.25-5.58,0.37c0-2.43,0-4.58,0-6.87c2.07-0.07,4.13-0.35,6.13,0.35C247.45,413.61,248.11,414.84,247.98,416.51z"
		/>
	<path class="st0" d="M280.19,411.28c-2.56-2.78-5.75-4.24-8.69-4.28c-4.12-0.01-6.96,1.09-9.41,3.22
		c-6.02,5.26-6.72,15.15-1.51,21.36c5.34,6.36,14.64,6.38,20.01,0.04C285.48,425.84,285.32,416.84,280.19,411.28z M276.19,427.35
		c-0.16,0.23-0.33,0.46-0.52,0.69c-2.7,3.22-7.3,3.25-10.05,0.07c-3.01-3.47-2.99-9.49,0.04-12.95c2.7-3.08,7.18-3.08,9.89,0.01
		c0.19,0.21,0.36,0.44,0.53,0.67c1.15,1.63,1.78,3.76,1.74,5.98C277.77,423.83,277.31,425.71,276.19,427.35z"/>
	<path class="st0" d="M115.12,428.73c-2.11-6.74-4.31-13.46-6.44-20.19c-0.25-0.78-0.57-1.07-1.41-1.03c-1.72,0.08-3.44,0.08-5.15,0
		c-0.92-0.04-1.3,0.25-1.58,1.13c-2.1,6.54-4.27,13.05-6.4,19.58c-0.46,1.41-0.57,3.14-2.85,2.49c0,1.79,0,3.4,0,5.07
		c3.52,0,6.98,0,10.48,0c0-1.68,0-3.3,0-5.06c-0.92,0-1.78,0-2.84,0c0.41-1.35,0.74-2.53,1.15-3.68c0.07-0.19,0.5-0.34,0.76-0.34
		c2.4-0.03,4.8-0.03,7.19,0.01c0.28,0,0.72,0.24,0.8,0.48c0.41,1.11,0.71,2.26,1.1,3.55c-0.98,0-1.8,0-2.69,0c0,1.74,0,3.36,0,5.02
		c3.52,0,7,0,10.49,0c0-1.69,0-3.28,0-5.1C115.84,431.23,115.54,430.04,115.12,428.73z M101.65,421.79c0.89-2.93,1.75-5.77,2.6-8.6
		c0.09-0.01,0.19-0.02,0.28-0.03c0.87,2.84,1.75,5.67,2.66,8.63C105.28,421.79,103.55,421.79,101.65,421.79z"/>
	<path class="st0" d="M333.02,408.2c-0.89-0.32-1.85-0.61-2.79-0.62c-4.59-0.06-9.19-0.02-13.78-0.01c-0.06,0-0.12,0.08-0.18,0.13
		c0,1.61,0,3.23,0,4.98c0.95,0,1.81,0,2.81,0c0,0.61,0,1.08,0,1.55c0,4.8,0,9.59,0,14.39c0,2.03,0,2.03-2.08,2.11
		c-0.23,0.01-0.46,0.06-0.75,0.1c0,1.66,0,3.28,0,4.92c3.87,0,7.68,0,11.46,0c0-1.71,0-3.32,0-4.96c-0.87-0.05-1.65-0.09-2.46-0.14
		c0-1.79,0-3.46,0-5.38c1.83,0,3.54,0.08,5.24-0.02c4.5-0.25,7.7-3.16,8.34-7.5C339.48,413.36,337.32,409.76,333.02,408.2z
		 M329.38,420.03c-1.32,0.23-2.68,0.2-4.1,0.29c0-2.62,0-5.06,0-7.71c1.43,0.08,2.84,0.03,4.19,0.27c1.86,0.34,2.84,1.8,2.8,3.76
		C332.22,418.55,331.33,419.69,329.38,420.03z"/>
	<path class="st0" d="M261.36,198.3c0-0.8,0-1.44,0-2.19c8.08,0,16.08,0,24.15,0c0,13.24,0,26.46,0,39.75c-8.04,0-16.02,0-24.16,0
		c0-2.32-0.06-4.63,0.03-6.93c0.04-1.13-0.34-1.97-1.01-2.82c-5.43-6.89-12.74-9.13-21.18-8.55c-3.32,0.23-6.46,1.05-9.18,3.09
		c-2.49,1.87-3.37,4.36-2.87,7.39c0.28,1.7,1.22,2.91,2.85,3.39c3.21,0.94,6.43,1.9,9.71,2.57c7.55,1.54,15.17,2.77,22.7,4.4
		c5.23,1.13,10.37,2.72,14.8,5.93c9.34,6.76,13.93,15.95,13.66,27.45c-0.34,14.17-7.93,23.37-20.46,28.9
		c-8.7,3.84-17.91,4.52-27.27,3.75c-5.7-0.47-11.18-1.82-16.37-4.27c-0.13-0.06-0.29-0.08-0.59-0.16c0,1.02,0,1.96,0,2.96
		c-8.13,0-16.1,0-24.18,0c0-13.63,0-27.2,0-40.86c8.03,0,16.01,0,24.16,0c0,1.41,0.06,2.8-0.01,4.18c-0.25,4.74,1.99,8.2,5.63,10.89
		c5.2,3.84,11.16,4.71,17.43,4.28c3.37-0.23,6.69-0.73,9.72-2.3c1.05-0.54,2.09-1.21,2.95-2.02c3.38-3.18,2.67-8.8-1.59-10.59
		c-3.47-1.45-7.19-2.37-10.87-3.23c-6.64-1.56-13.38-2.73-19.99-4.4c-5.56-1.41-10.8-3.76-15.43-7.22
		c-7.65-5.72-11.71-13.43-12.01-22.96c-0.43-13.5,5.9-23.15,17.5-29.51c7.02-3.85,14.72-4.88,22.63-4.65
		c6.32,0.18,12.48,1.19,18.39,3.5C260.72,198.12,260.95,198.17,261.36,198.3z"/>
	<path class="st0" d="M249.24,156.74c7.29,0,14.44,0,21.7,0c0,8.05,0,16.03,0,24.11c-22.67,0-45.36,0-68.17,0
		c0-7.97,0-15.97,0-24.08c6.65,0,13.27,0,20,0c0-19.54,0-38.99,0-58.57c-6.67,0-13.32,0-20.04,0c0-8.13,0-16.11,0-24.17
		c14.09,0,28.15,0,42.38,0c0,4.2,0,8.36,0,12.53c0.09,0.03,0.18,0.06,0.27,0.09c0.8-0.9,1.59-1.82,2.41-2.71
		c6.22-6.78,14-10.38,23.13-10.91c6.18-0.35,12.38-0.38,18.57-0.54c0.15,0,0.31,0.04,0.55,0.07c0,8.79,0,17.56,0,26.48
		c-1.15,0-2.26,0-3.36,0c-6.2-0.01-12.4-0.06-18.53,1.01c-3.28,0.57-6.5,1.36-9.33,3.23c-4.4,2.91-6.68,7.19-7.8,12.19
		c-1.31,5.84-1.69,11.79-1.75,17.75c-0.08,7.52-0.06,15.04-0.08,22.55C249.18,156.03,249.21,156.3,249.24,156.74z"/>
	<path class="st0" d="M151.74,280.27c5.29,0,10.35,0,15.47,0c0,8.11,0,16.09,0,24.16c-19.06,0-38.07,0-57.18,0
		c0-8.03,0-16.04,0-24.16c5.09,0,10.15,0,15.32,0c0-19.53,0-38.94,0-58.51c-5.09,0-10.18,0-15.34,0c0-8.13,0-16.11,0-24.18
		c13.88,0,27.73,0,41.74,0C151.74,225.08,151.74,252.57,151.74,280.27z"/>
	<path class="st0" d="M175.24,156.67c0-0.49,0-0.84,0-1.2c0-11,0.02-22-0.01-32.99c-0.03-7.95,0.3-15.92-0.81-23.84
		c-0.95-6.81-3.81-12.66-8.83-17.39c-4.36-4.1-9.7-6.44-15.39-7.96c-9.86-2.63-19.85-2.76-29.84-0.97
		c-12.08,2.16-22.18,7.79-29.47,17.86c-2.22,3.07-4.04,6.43-6.14,9.82c8.75,2.33,17.12,4.54,25.55,6.78
		c0.46-0.81,0.89-1.57,1.32-2.33c1.44-2.53,3.29-4.68,5.63-6.46c6.6-4.99,19.42-4.41,25.07-0.91c3.56,2.2,6.1,5.05,6.34,9.42
		c0.2,3.47,0.3,6.94,0.44,10.41c0.01,0.29-0.06,0.59-0.1,0.99c-0.37-0.17-0.62-0.27-0.86-0.39c-5.7-2.86-11.71-4.71-18.06-5.31
		c-12.97-1.22-24.54,2.02-34.29,10.97c-11.57,10.62-13.04,26.76-7.69,38.32c5.72,12.35,15.95,19.03,29.22,20.8
		c12.08,1.61,23.01-1.82,32.8-8.99c0.24-0.17,0.51-0.3,0.92-0.53c0,2.81,0,5.43,0,8.11c13.75,0,27.41,0,41.1,0
		c0-8.07,0-16.07,0-24.21C186.47,156.67,180.9,156.67,175.24,156.67z M147.68,151.93c-0.41,0.41-0.88,0.8-1.4,1.18
		c-0.88,0.64-1.78,1.25-2.68,1.83c-1.79,1.16-3.63,2.19-5.54,3.05c-2.69,1.21-5.53,2.08-8.58,2.49c-3.72,0.5-7.46,0.61-10.97-0.94
		c-4.99-2.21-7.61-6.13-7.74-11.64c-0.11-4.67,1.65-8.19,5.01-10.71c0.77-0.58,1.63-1.11,2.57-1.58c4.26-2.15,8.8-2.08,13.36-1.36
		c6.21,0.98,11.67,3.71,16.72,7.34c0.35,0.25,0.63,0.81,0.67,1.25c0.08,1.2,0.02,2.41,0.03,3.6c0,0.28-0.05,0.57,0.01,0.84
		C149.55,149.29,148.9,150.71,147.68,151.93z"/>
</g>
</svg>
